<svg xmlns="http://www.w3.org/2000/svg" version="1.0" width="774.000000pt" height="406.000000pt" viewBox="0 0 774.000000 406.000000" preserveAspectRatio="xMidYMid meet">

<g transform="translate(0.000000,406.000000) scale(0.100000,-0.100000)" fill="#cd5b1c" stroke="none">
<path d="M5295 3435 c-415 -74 -725 -298 -925 -668 -40 -73 -41 -77 -38 -161 l3 -85 77 48 c50 31 108 81 169 144 258 273 564 417 889 418 322 2 592 -104 805 -316 135 -134 242 -318 291 -500 15 -57 19 -106 19 -255 0 -161 -3 -196 -23 -270 -27 -102 -95 -242 -158 -329 -145 -200 -461 -455 -719 -582 -199 -97 -247 -106 -373 -63 -392 131 -833 524 -1577 1404 -416 492 -600 687 -802 847 -215 171 -403 269 -616 321 -113 27 -380 24 -516 -6 -295 -66 -520 -189 -732 -401 -218 -219 -352 -474 -406 -774 -22 -125 -22 -370 1 -497 94 -525 477 -964 984 -1130 159 -51 248 -64 447 -64 147 0 199 4 282 22 261 56 493 175 698 356 60 53 282 332 273 342 -3 2 -47 -10 -99 -26 -52 -16 -95 -30 -96 -30 -1 0 -4 51 -5 112 l-3 113 -93 -127 c-134 -184 -249 -282 -437 -376 -525 -261 -1163 -94 -1496 391 -80 116 -135 236 -172 377 -28 107 -30 127 -30 290 0 163 2 183 30 290 57 214 146 372 299 530 103 107 196 176 314 235 266 134 582 163 819 75 98 -37 228 -111 339 -194 121 -90 399 -363 542 -531 51 -60 141 -166 200 -235 59 -69 167 -195 240 -280 299 -351 685 -744 895 -913 274 -221 511 -348 760 -409 52 -12 588 -14 752 -2 l82 6 7 32 c22 101 49 128 176 173 68 24 89 26 328 32 171 4 262 10 276 18 42 24 59 108 40 201 -31 152 -31 156 8 200 20 22 36 47 36 56 0 9 -16 32 -35 52 -19 19 -35 39 -35 45 0 6 23 34 50 63 53 56 60 82 35 126 -20 35 -19 84 3 102 9 8 56 38 103 67 83 49 118 88 103 113 -5 8 -266 345 -336 435 -5 6 -24 78 -43 160 -52 233 -103 349 -220 504 -189 252 -500 436 -861 510 -132 27 -415 34 -529 14z"/>
<path xmlns="http://www.w3.org/2000/svg" fill="#000000" d="M2308 2583 c-2 -30 -8 -38 -32 -46 -29 -10 -31 -9 -55 32 -7 11 -14 11 -40 -5 -35 -21 -37 -26 -16 -58 14 -21 13 -24 -9 -45 -21 -19 -26 -20 -51 -9 -25 11 -29 10 -46 -11 -26 -31 -24 -46 7 -59 21 -10 25 -18 22 -45 -3 -29 -6 -32 -40 -35 -37 -3 -38 -4 -38 -43 0 -39 0 -39 39 -39 36 0 40 -3 46 -31 5 -22 3 -34 -6 -40 -43 -26 -43 -26 -19 -59 16 -22 27 -29 39 -24 38 16 57 15 75 -4 16 -19 16 -23 2 -50 -15 -28 -14 -30 10 -41 37 -16 49 -14 64 15 10 18 20 24 35 20 11 -3 26 -6 33 -6 7 0 12 -14 12 -35 0 -35 0 -35 45 -35 l45 0 0 39 c0 35 3 39 32 45 26 5 36 2 53 -19 l20 -25 29 23 c28 23 28 24 12 48 -15 24 -15 27 9 49 21 20 28 22 50 12 34 -16 32 -17 51 20 15 30 15 32 -2 45 -10 7 -21 13 -26 13 -13 0 -9 60 5 64 6 3 23 7 37 10 23 5 25 9 22 47 -4 40 -5 41 -37 35 -30 -6 -34 -4 -44 25 -6 18 -10 33 -9 34 2 1 13 8 26 14 27 14 28 28 2 61 -18 24 -20 25 -47 8 -27 -15 -30 -15 -52 1 -23 18 -24 29 -7 72 5 12 -2 20 -25 29 -28 12 -33 12 -45 -5 -7 -10 -15 -22 -17 -28 -1 -5 -16 -7 -35 -3 -26 6 -32 13 -38 42 -6 32 -9 34 -45 34 -36 0 -38 -1 -41 -37z m135 -124 c83 -23 146 -124 132 -209 -38 -225 -381 -225 -403 0 -14 150 118 252 271 209z"/>
<path xmlns="http://www.w3.org/2000/svg" fill="#000000" d="M5540 2535 c0 -54 0 -55 30 -55 30 0 30 1 30 55 0 54 0 55 -30 55 -30 0 -30 -1 -30 -55z"/>
<path xmlns="http://www.w3.org/2000/svg" fill="#000000" d="M5335 2548 c-11 -6 -21 -12 -23 -13 -2 -2 8 -26 22 -54 25 -48 27 -50 51 -39 14 6 25 14 25 18 0 7 -50 100 -53 100 -1 0 -11 -6 -22 -12z"/>
<path xmlns="http://www.w3.org/2000/svg" fill="#000000" d="M5749 2504 c-24 -44 -24 -45 -5 -60 29 -21 33 -19 61 36 24 48 24 50 6 60 -31 16 -37 13 -62 -36z"/>
<path xmlns="http://www.w3.org/2000/svg" fill="#000000" d="M5152 2389 c-8 -12 -10 -24 -5 -28 28 -24 83 -61 89 -61 7 0 33 31 34 41 0 7 -86 69 -97 69 -4 0 -14 -10 -21 -21z"/>
<path xmlns="http://www.w3.org/2000/svg" fill="#000000" d="M5912 2379 c-47 -34 -48 -37 -28 -64 13 -18 14 -18 47 3 73 47 75 49 54 72 -23 26 -23 26 -73 -11z"/>
<path xmlns="http://www.w3.org/2000/svg" fill="#000000" d="M5456 2380 c-103 -40 -161 -131 -160 -248 0 -58 7 -76 67 -195 36 -73 69 -145 72 -160 5 -24 10 -28 33 -25 48 5 33 60 -68 248 -34 63 -40 84 -40 134 0 77 27 135 82 172 35 25 53 30 117 32 65 3 83 0 121 -21 25 -13 58 -42 75 -66 25 -36 29 -50 29 -109 0 -63 -4 -74 -67 -194 -75 -143 -87 -198 -43 -198 19 0 26 7 31 33 4 17 37 89 73 158 62 119 65 129 65 195 0 159 -112 265 -277 264 -35 -1 -82 -9 -110 -20z"/>
<path d="M1702 2139 c3 -40 2 -42 -35 -55 -46 -16 -58 -12 -81 27 -12 20 -22 27 -29 21 -7 -4 -24 -16 -40 -25 l-27 -18 25 -33 26 -34 -27 -31 c-29 -34 -51 -38 -93 -17 -27 15 -28 14 -44 -20 -23 -46 -22 -50 13 -64 40 -17 43 -23 30 -70 -11 -39 -12 -40 -55 -40 l-45 0 0 -45 0 -45 49 0 c45 0 49 -2 54 -27 3 -16 8 -35 12 -44 4 -12 -4 -23 -30 -38 l-36 -21 22 -33 c12 -17 24 -33 25 -35 1 -2 16 4 33 12 40 21 50 20 86 -9 l29 -24 -17 -36 c-20 -42 -18 -48 25 -66 28 -11 33 -11 42 5 29 47 31 48 78 41 45 -7 47 -8 50 -44 3 -36 4 -36 51 -39 l49 -3 -4 42 c-3 42 -3 42 42 55 39 12 47 11 62 -3 10 -8 20 -24 24 -35 5 -18 7 -18 42 3 20 13 39 24 41 26 3 2 -5 17 -17 33 -28 37 -28 38 5 72 31 32 43 34 83 13 29 -15 30 -15 50 25 l20 40 -40 20 c-35 18 -40 24 -34 43 20 63 23 67 58 67 43 0 46 5 39 59 l-6 43 -39 -5 c-34 -4 -40 -2 -47 16 -24 64 -24 66 13 88 l36 21 -18 30 c-22 39 -36 44 -68 24 -30 -20 -52 -15 -84 19 -23 25 -23 26 -6 61 9 20 16 38 14 39 -10 8 -70 36 -73 33 -1 -2 -10 -18 -19 -35 -17 -34 -29 -38 -84 -27 -26 5 -32 12 -37 45 -7 39 -7 39 -52 39 l-45 0 4 -41z m193 -156 c57 -29 94 -69 123 -132 80 -173 -71 -365 -274 -348 -207 16 -313 253 -183 410 29 36 83 70 139 88 43 14 152 4 195 -18z"/>
<path xmlns="http://www.w3.org/2000/svg" fill="#000000" d="M5080 2150 l0 -30 70 0 70 0 0 30 0 30 -70 0 -70 0 0 -30z"/>
<path xmlns="http://www.w3.org/2000/svg" fill="#000000" d="M5930 2150 l0 -30 65 0 65 0 0 30 0 30 -65 0 -65 0 0 -30z"/>
<path xmlns="http://www.w3.org/2000/svg" fill="#000000" d="M5177 1967 c-39 -17 -46 -24 -41 -41 11 -35 19 -37 70 -15 61 27 56 22 48 53 -7 31 -14 31 -77 3z"/>
xmlns="http://www.w3.org/2000/svg" d="M5889 1964 c-5 -15 -8 -28 -7 -30 5 -4 99 -44 104 -44 5 0 26 52 22 56 -2 1 -27 12 -56 23 l-53 21 -10 -26z"/&gt;
<path xmlns="http://www.w3.org/2000/svg" fill="#000000" d="M5455 1700 c-14 -23 11 -30 116 -30 102 0 109 1 109 20 0 19 -7 20 -109 20 -63 0 -112 -4 -116 -10z"/>
<path xmlns="http://www.w3.org/2000/svg" fill="#000000" d="M5467 1624 c-4 -4 -7 -13 -7 -21 0 -11 22 -13 108 -11 87 2 107 6 107 18 0 12 -19 16 -101 18 -55 1 -103 0 -107 -4z"/>
<path xmlns="http://www.w3.org/2000/svg" fill="#000000" d="M5513 1525 c36 -32 71 -32 109 0 l30 25 -84 0 -83 -1 28 -24z"/>
</g>
</svg>